<?xml version="1.0" encoding="utf-8"?>
<!-- Generator: Adobe Illustrator 23.0.0, SVG Export Plug-In . SVG Version: 6.00 Build 0)  -->
<svg version="1.1" id="图层_1" xmlns="http://www.w3.org/2000/svg" xmlns:xlink="http://www.w3.org/1999/xlink" x="0px" y="0px"
	 viewBox="0 0 1389 2834.6" style="enable-background:new 0 0 1389 2834.6;" xml:space="preserve">
<style type="text/css">
	.st0{clip-path:url(#SVGID_2_);}
</style>
<g>
	<g>
		<defs>
			<rect id="SVGID_1_" x="400.3" y="1060.2" width="627.5" height="732.7"/>
		</defs>
		<clipPath id="SVGID_2_">
			<use xlink:href="#SVGID_1_"  style="overflow:visible;"/>
		</clipPath>
		<path class="st0" d="M1005.3,1203.5l-129.5-122.8c-13.9-13-32.2-20.2-51.3-20.1H461.8c-33.2-0.8-60.7,25.4-61.6,58.6v614.3
			c0.9,33.1,28.5,59.2,61.6,58.5h503.6c33.1,0.8,60.6-25.3,61.6-58.5v-481.2C1026.9,1233.7,1019.1,1216,1005.3,1203.5L1005.3,1203.5
			z M625.8,1568.3c-9.1,8.5-23.3,8.5-32.4,0l-80.9-76.8c-4.3-3.9-6.7-9.4-6.7-15.1c0-5.8,2.4-11.3,6.7-15.1l80.9-76.8
			c4.4-4.1,10.2-6.4,16.2-6.4c6-0.1,11.9,2.2,16.2,6.4c4.2,4,6.7,9.5,6.8,15.4c0,5.8-2.5,11.4-6.8,15.4l-64.7,61.4l64.7,61.5
			c4.1,4,6.4,9.4,6.4,15.1C632.2,1558.9,629.9,1564.3,625.8,1568.3L625.8,1568.3z M759.8,1379.3l-64.3,206.5
			c-3.2,9.4-12.1,15.6-22,15.4c-2.3-0.1-4.5-0.4-6.8-0.8c-5.7-1.6-10.6-5.5-13.5-10.7c-2.8-5.1-3.5-11.1-1.8-16.6l64.8-206.5
			c4-11.7,16.5-18.1,28.3-14.5c5.7,1.6,10.6,5.4,13.5,10.7C760.8,1367.7,761.5,1373.7,759.8,1379.3L759.8,1379.3z M914,1491.5
			l-80.9,76.8c-9.1,8.5-23.3,8.5-32.4,0c-4.3-3.9-6.7-9.4-6.7-15.1c0-5.8,2.4-11.3,6.7-15.1l64.7-61.5l-64.7-61.4
			c-4.2-4-6.7-9.5-6.8-15.4c0-5.8,2.5-11.4,6.8-15.4c4.4-4.1,10.2-6.4,16.2-6.4c6,0,11.8,2.3,16.2,6.4l80.9,76.8
			c4.3,3.9,6.7,9.4,6.7,15.1C920.7,1482.1,918.3,1487.6,914,1491.5L914,1491.5z M852.4,1256.8c-16.2,0.4-29.7-12.4-30.1-28.6V1105
			l160.2,151.8H852.4z M852.4,1256.8"/>
	</g>
</g>
</svg>
