<?xml version="1.0" encoding="utf-8"?>
<!-- Generator: Adobe Illustrator 23.0.0, SVG Export Plug-In . SVG Version: 6.00 Build 0)  -->
<svg version="1.1" id="图层_1" xmlns="http://www.w3.org/2000/svg" xmlns:xlink="http://www.w3.org/1999/xlink" x="0px" y="0px"
	 viewBox="0 0 128 128" style="enable-background:new 0 0 128 128;" xml:space="preserve">
<g>
	<path d="M113,126.6H16.4c-2.3-0.1-4.4-1.1-6-2.7c-1.3-1.4-2.2-3.2-2.3-5.1V9.5c0.2-2,1.1-3.9,2.5-5.4c1.6-1.5,3.6-2.4,5.8-2.5h96.5
		c2.3,0.1,4.4,1.1,6,2.7c1.3,1.4,2.2,3.2,2.3,5.2v109.2c-0.2,2.1-1.1,4.1-2.7,5.6C117,125.7,115,126.5,113,126.6L113,126.6z
		 M83.3,54.9c-6.3,6-12.5,11.9-18.8,17.9L50.4,86.1c-0.9,3.3-1.9,6.6-2.8,9.8c-0.7,2.5-1.4,4.9-2.1,7.3c-0.4,1.7,0.3,3.4,1.9,4.1
		c0.6,0.3,1.2,0.4,1.8,0.4c0.3,0,0.7,0,1-0.1l7.8-2c3.4-0.9,6.8-1.7,10.3-2.6C79,92.9,90.1,82.4,101.2,71.9l-6.5-6.2l-0.9-0.9
		C90.3,61.5,86.8,58.2,83.3,54.9L83.3,54.9z M101.8,40.7c-2.2,0-4.4,0.8-6,2.3l-0.1,0.1l-9,8.5c6.1,5.8,12.2,11.5,17.9,17l9.1-8.6
		c1.6-1.5,2.5-3.5,2.5-5.7c0-2.2-0.9-4.2-2.5-5.7l-6-5.6C106.1,41.5,104,40.7,101.8,40.7L101.8,40.7z M27,52c-2.8,0-5.4,0.3-5.5,3.6
		c-0.1,1,0.2,2.1,0.9,2.8c1.3,1,3,1.4,4.6,1.2l19.7,0.1c2.7,0,5.4-0.3,5.5-3.7c0.1-1-0.2-2.1-0.9-2.8c-1.3-1-3-1.4-4.6-1.2L27,52z
		 M27,36.3c-2.6,0-5.4,0.3-5.4,3.7c-0.1,1,0.2,2,0.9,2.8c1.3,1,3,1.4,4.7,1.2h36.7c2.6,0,5.3-0.3,5.4-3.7c0.1-1-0.2-2-0.9-2.8
		c-1.3-1-3-1.4-4.7-1.2L27,36.3z M26.8,20.7c-2.8,0-5.3,0.5-5.3,3.8c0,3.4,2.5,3.8,5.3,3.8h50.9c2.8,0,5.3-0.5,5.3-3.8
		c0-3.4-2.6-3.8-5.3-3.8H26.8z M26.8,20.7"/>
</g>
</svg>
