<?xml version="1.0" encoding="utf-8"?>
<!-- Generator: Adobe Illustrator 23.0.0, SVG Export Plug-In . SVG Version: 6.00 Build 0)  -->
<svg version="1.1" id="图层_1" xmlns="http://www.w3.org/2000/svg" xmlns:xlink="http://www.w3.org/1999/xlink" x="0px" y="0px"
	 viewBox="0 0 128 128" style="enable-background:new 0 0 128 128;" xml:space="preserve">
<g>
	<path d="M61.2,34.6c-11.4,0-20.7,9.3-20.7,20.7c0,11.4,9.3,20.7,20.7,20.7c11.4,0,20.7-9.3,20.7-20.7
		C81.9,43.9,72.7,34.6,61.2,34.6z M61.3,44.6c-5.9,0-10.6,4.8-10.7,10.7c0,1.8-1.5,3.3-3.3,3.3c-1.8,0-3.3-1.5-3.3-3.3
		c0-9.5,7.7-17.2,17.2-17.2c1.8,0,3.3,1.5,3.3,3.3C64.5,43.2,63.1,44.6,61.3,44.6z"/>
	<path d="M20.2,21.4v35.5c-0.1,27.8,17.7,52.5,44.1,61.1c26.4-8.6,44.2-33.3,44-61.1V21.4C80.9,6.4,47.7,6.4,20.2,21.4z M98,82.9
		c-0.2,1.6-1.3,2.9-2.8,3.5c-1.5,0.6-3.2,0.3-4.5-0.7l-5-4.2L81,77.8c-8.8,7.7-21.3,9.6-32,4.8C38.2,77.7,31.4,67,31.4,55.3
		C31.4,42.6,39.3,31.2,51.3,27c12-4.3,25.3-0.5,33.3,9.4c8,9.9,8.8,23.7,2.2,34.5l4.5,3.6l5,4.2C97.6,79.7,98.2,81.3,98,82.9z"/>
</g>
<g>
	<path d="M10.9,14.5v41.2c-0.2,32.3,21.4,60.9,53.4,70.9c32-10,53.5-39.7,53.3-70.9V14.5C84.4-2.9,44.2-2.9,10.9,14.5L10.9,14.5z
		 M111.8,20.1v36c0.2,28.7-18.4,54.4-46.4,64.4c-0.7,0.3-1.4,0.3-2.1,0c-28-10-46.6-35.7-46.4-64.4v-36c0-1.1,0.7-2.1,1.7-2.6
		c28.9-13.3,62.6-13.3,91.5,0C111.1,18,111.8,19,111.8,20.1L111.8,20.1z M111.8,20.1"/>
</g>
</svg>
