<?xml version="1.0" encoding="utf-8"?>
<!-- Generator: Adobe Illustrator 23.0.0, SVG Export Plug-In . SVG Version: 6.00 Build 0)  -->
<svg version="1.1" id="图层_1" xmlns="http://www.w3.org/2000/svg" xmlns:xlink="http://www.w3.org/1999/xlink" x="0px" y="0px"
	 viewBox="0 0 128 128" style="enable-background:new 0 0 128 128;" xml:space="preserve">
<g>
	<path d="M125.2,77c-1.7-4-4-6.9-5.7-9.2c-2.3-2.3-5.2-4.6-9.2-5.7c-4-1.7-6.9-2.3-11.5-2.3c-4,0-7.5,0.6-10.3,2.3
		c-4,1.7-6.9,4-9.2,5.7c-2.3,2.3-4.6,5.2-5.7,9.2c-1.7,4-2.3,6.9-2.3,11.5c0,4.6,0.6,7.5,2.3,11.5c1.7,2.9,4,5.7,5.7,9.2
		c2.3,2.3,5.2,4.6,9.2,5.7c2.9,1.7,6.9,2.3,10.3,2.3c3.4,0,7.5-0.6,11.5-2.3c4-1.7,6.9-4,9.2-5.7c2.3-2.3,4.6-5.2,5.7-9.2
		c1.7-4,2.3-6.9,2.3-11.5C127.5,83.9,126.9,79.8,125.2,77L125.2,77z M112,91.9H87.4c-2.9,0-4.6-2.3-4.6-4.6c0-2.3,2.3-4.6,4.6-4.6
		H112c2.9,0,4.6,2.3,4.6,4.6C116,90.2,113.8,91.9,112,91.9L112,91.9z"/>
	<path d="M74.2,113.1c-2.9-2.9-5.7-6.9-7.5-11.5c-1.7-4.6-2.9-9.2-2.9-13.8c0-4.6,0.6-9.7,2.9-13.8c1.7-4.6,4.6-8,7.5-11.5
		c2.9-2.9,6.9-5.7,11.5-7.5s9.2-2.9,13.8-2.9h4V18.5c0-5.7-5.2-11.5-11.5-11.5H12.9c-6.3,0-11.5,5.7-11.5,11.5v91.7
		c0,5.7,5.2,11.5,11.5,11.5h76.8c-1.7,0-2.3-0.6-4-0.6C81.7,118.2,78.2,115.9,74.2,113.1L74.2,113.1z M21.5,34.6H84
		c2.9,0,4.6,2.3,4.6,4.6c0,2.9-2.3,4.6-4.6,4.6H21.5c-2.9,0.6-5.2-1.7-5.2-5.2C16.3,36.9,18.6,34.6,21.5,34.6L21.5,34.6z M53,97.6
		H21.5c-2.9,0-4.6-2.3-4.6-4.6c0-2.9,2.3-4.6,4.6-4.6H53c2.3-0.6,4.6,1.7,4.6,4.6C57.6,95.9,55.3,97.6,53,97.6L53,97.6z M53,70.1
		H21.5c-2.9,0-4.6-2.3-4.6-4.6c0-2.9,2.3-4.6,4.6-4.6H53c2.3,0,4.6,1.7,4.6,4.6C57.6,69,55.3,70.1,53,70.1L53,70.1z"/>
</g>
</svg>
