<?xml version="1.0" encoding="utf-8"?>
<!-- Generator: Adobe Illustrator 23.0.0, SVG Export Plug-In . SVG Version: 6.00 Build 0)  -->
<svg version="1.1" id="图层_1" xmlns="http://www.w3.org/2000/svg" xmlns:xlink="http://www.w3.org/1999/xlink" x="0px" y="0px"
	 viewBox="0 0 128 128" style="enable-background:new 0 0 128 128;" xml:space="preserve">
<g>
	<path d="M84.7,55.2C94,39.2,88.9,18.6,73.1,8.8C57.3-0.9,36.6,3.7,26.5,19.2c-10.2,15.5-6.1,36.4,9.1,47
		C15.4,73.4,1.7,92.5,1.4,114c0,4.1,3.3,7.3,7.3,7.3h48.5c-7.2-12.1-8.3-26.9-2.8-40C59.8,68.4,71.1,58.7,84.7,55.2z"/>
</g>
<g>
	<path d="M82.5,75.9c-1.3,0-2.3,1.1-2.3,2.5s1,2.5,2.3,2.5h25c1.3,0,2.3-1.1,2.3-2.5s-1-2.5-2.3-2.5H82.5z M124.4,92.6
		c-1.4-1.7-3.6-2.8-6.2-2.8H71.3c-2.5,0-4.8,1-6.2,2.8c-0.9,1.2-1.9,3.3-1.4,6.5l2.6,18.1v0c0.3,1.8,1,3.3,2,4.5
		c1.2,1.4,2.8,2.1,4.5,2.1h43.8c1.7,0,3.3-0.7,4.5-2.1c1-1.2,1.7-2.7,2-4.5l2.6-18.1C126.3,95.9,125.3,93.8,124.4,92.6L124.4,92.6z
		 M102.9,111.1H86.6c-1.8,0-3.3-1.6-3.3-3.6s1.5-3.6,3.3-3.6h16.3c1.8,0.1,3.2,1.6,3.2,3.6C106,109.5,104.6,111,102.9,111.1
		L102.9,111.1z M102.9,111.1"/>
	<path d="M71.7,88.2c1.2,0,2.1-0.9,2.3-2.2l1.9-14.8c0.2-1.5,1-3.3,2.7-3.3h32.5c1.5,0,2.5,1.7,2.7,3.3l1.9,14.8
		c0.2,1.4,1.3,2.3,2.6,2.1c1.3-0.2,2.1-1.4,2-2.8l-1.9-14.8l0-0.1c-0.3-1.9-1.1-3.6-2.2-5c-1.3-1.6-3.1-2.5-5.1-2.5H78.6
		c-1.9,0-3.8,0.9-5.1,2.4c-1.2,1.4-2,3.3-2.2,5.2l-1.9,14.8c-0.1,0.7,0.1,1.4,0.5,2C70.4,87.9,71,88.2,71.7,88.2L71.7,88.2z
		 M71.7,88.2"/>
</g>
</svg>
