<?xml version="1.0" encoding="utf-8"?>
<!-- Generator: Adobe Illustrator 23.0.0, SVG Export Plug-In . SVG Version: 6.00 Build 0)  -->
<svg version="1.1" id="图层_1" xmlns="http://www.w3.org/2000/svg" xmlns:xlink="http://www.w3.org/1999/xlink" x="0px" y="0px"
	 viewBox="0 0 128 128" style="enable-background:new 0 0 128 128;" xml:space="preserve">
<g>
	<path d="M26.4,32.7c0,15.5,11.6,28.1,25.9,28.1s25.9-12.6,25.9-28.1S66.6,4.6,52.3,4.6C38,4.6,26.4,17.2,26.4,32.7L26.4,32.7z"/>
	<path d="M64.7,62.4H44.4c-23.6,0-42.7,20.7-42.7,46.2c0,7.7,5.8,14,12.9,14h77.5c5.6,0,10.1-4.9,10.1-11v-8.6
		C102.2,80.6,85.4,62.4,64.7,62.4L64.7,62.4z M81.5,32.5c0,7.4-2.5,14.3-6.6,19.5c-0.5,0.6-0.5,1.5,0.1,2.1c3.6,4,8.6,6.5,14.2,6.5
		c11,0,19.8-9.7,19.7-21.5c-0.1-11.6-8.8-21.1-19.5-21.2c-3-0.1-5.9,0.7-8.4,1.9c-0.9,0.5-1.4,1.6-1,2.6
		C81,25.5,81.5,28.9,81.5,32.5L81.5,32.5z"/>
	<path d="M92.7,64.1H87c-1.2,0-1.6,1.6-0.5,2.3c11.3,7.3,18.9,20.7,18.9,36v8.9c0,2.4-0.7,4.7-1.9,6.4c-0.5,0.8,0,1.9,0.9,1.9h13.6
		c5.1,0,9.4-4.6,9.4-10.1v-8C127.3,80.9,111.8,64.1,92.7,64.1L92.7,64.1z"/>
</g>
</svg>
