<?xml version="1.0" encoding="utf-8"?>
<!-- Generator: Adobe Illustrator 23.0.0, SVG Export Plug-In . SVG Version: 6.00 Build 0)  -->
<svg version="1.1" id="图层_1" xmlns="http://www.w3.org/2000/svg" xmlns:xlink="http://www.w3.org/1999/xlink" x="0px" y="0px"
	 viewBox="0 0 128 128" style="enable-background:new 0 0 128 128;" xml:space="preserve">
<style type="text/css">
	.st0{clip-path:url(#SVGID_2_);}
</style>
<g>
	<g>
		<g>
			<defs>
				<rect id="SVGID_1_" x="1.9" y="5.5" width="124.6" height="117.6"/>
			</defs>
			<clipPath id="SVGID_2_">
				<use xlink:href="#SVGID_1_"  style="overflow:visible;"/>
			</clipPath>
			<path class="st0" d="M101.9,114.6H27c-2,0-3.6,1.9-3.6,4.2s1.6,4.2,3.6,4.2h74.9c2,0,3.6-1.9,3.6-4.2S103.9,114.6,101.9,114.6
				L101.9,114.6z M119.2,5.6H9c-3.9,0-7.1,3.2-7.1,7.1v80.2C1.9,96.8,5,100,9,100h110.3c3.9,0,7.1-3.2,7.1-7.1V12.7
				C126.4,8.8,123.2,5.6,119.2,5.6L119.2,5.6z M109.2,37.2L78.4,64.1c-2.5,2.2-6.2,2.6-9.2,1L49.1,53.9c-0.5-0.3-1.1-0.2-1.5,0.2
				L28.1,74.7c-0.9,1-2.2,1.5-3.5,1.5c-1.3,0-2.5-0.5-3.4-1.4c-1.9-1.9-2-4.9-0.1-6.9l21.1-22.3c2.5-2.6,6.5-3.2,9.7-1.5l20.3,11.3
				c0.5,0.3,1,0.2,1.4-0.2l29.2-25.5c1-0.9,2.2-1.3,3.5-1.2c1.3,0.1,2.5,0.7,3.3,1.7c0.9,1,1.3,2.2,1.2,3.5
				C110.7,35.1,110.2,36.4,109.2,37.2L109.2,37.2z"/>
		</g>
	</g>
</g>
</svg>
