<?xml version="1.0" encoding="utf-8"?>
<!-- Generator: Adobe Illustrator 23.0.0, SVG Export Plug-In . SVG Version: 6.00 Build 0)  -->
<svg version="1.1" id="图层_1" xmlns="http://www.w3.org/2000/svg" xmlns:xlink="http://www.w3.org/1999/xlink" x="0px" y="0px"
	 viewBox="0 0 1389 2834.6" style="enable-background:new 0 0 1389 2834.6;" xml:space="preserve">
<style type="text/css">
	.st0{clip-path:url(#SVGID_2_);}
</style>
<g>
	<g>
		<defs>
			<rect id="SVGID_1_" x="375.9" y="1175.8" width="680.7" height="526.1"/>
		</defs>
		<clipPath id="SVGID_2_">
			<use xlink:href="#SVGID_1_"  style="overflow:visible;"/>
		</clipPath>
		<path class="st0" d="M936,1176.1H407.6c-8.5,0-16.7,3.4-22.7,9.5c-6,6.1-9.3,14.3-9.2,22.8v366.1c0,17.6,14.2,31.9,31.8,32H936
			c8.5,0,16.6-3.4,22.6-9.4c6-6,9.3-14.2,9.2-22.6v-366.1c0.1-8.5-3.2-16.7-9.2-22.8C952.6,1179.6,944.5,1176.1,936,1176.1
			L936,1176.1z M676.5,1300.4h88.3c9.9,0,18,8,18,18c0,9.9-8,18-18,18h-88.3c-9.6,0-17.4-7.8-17.4-17.4c0-9.6,7.8-17.4,17.4-17.4
			V1300.4z M525.7,1269.7c22.8,0,43.3,13.7,52,34.7c8.7,21,3.9,45.2-12.2,61.3c-16.1,16.1-40.3,20.9-61.3,12.2
			c-21-8.7-34.7-29.2-34.7-52C469.4,1294.9,494.6,1269.7,525.7,1269.7L525.7,1269.7z M451.8,1513.7c0-58.3,33-105.7,73.9-105.7
			c41,0,73.7,47.4,73.7,105.7H451.8z M886.5,1515H676.5c-9.6,0-17.4-7.8-17.4-17.4c0-9.6,7.8-17.4,17.4-17.4h210.3
			c6.2,0,12,3.3,15.1,8.7c3.1,5.4,3.1,12,0,17.4c-3.1,5.4-8.8,8.7-15.1,8.7H886.5z M886.5,1425.1H676.5c-9.6,0-17.4-7.8-17.4-17.4
			c0-9.6,7.8-17.4,17.4-17.4h210.3c9.6,0,17.4,7.8,17.4,17.4c0,9.6-7.8,17.4-17.4,17.4H886.5z M886.5,1425.1"/>
	</g>
	<rect x="451.5" y="1662.6" width="604.8" height="38.7"/>
	<rect x="1017.4" y="1248" width="38.7" height="453.3"/>
</g>
</svg>
