<?xml version="1.0" encoding="utf-8"?>
<!-- Generator: Adobe Illustrator 23.0.0, SVG Export Plug-In . SVG Version: 6.00 Build 0)  -->
<svg version="1.1" id="图层_1" xmlns="http://www.w3.org/2000/svg" xmlns:xlink="http://www.w3.org/1999/xlink" x="0px" y="0px"
	 viewBox="0 0 128 128" style="enable-background:new 0 0 128 128;" xml:space="preserve">
<style type="text/css">
	.st0{clip-path:url(#SVGID_2_);}
</style>
<g>
	<path d="M94.7,62.6c0.4,3.8-1.7,7.4-5,8.7c-1.6,6-5.2,11.2-10,14.6c-0.1,4.2,0.1,8.5,0.6,12.6c3.8,10,15.7,3.3,26.3,14.6
		c2.9,6.8,4.8,5.5,5.6,12.8h-94c0.6-7.1,2.3-5.6,5-12.2c9.4-12,23.2-4,27-15.3c0.5-4.2,0.7-8.4,0.6-12.6c-4.7-3.6-8.2-8.7-10-14.6
		c-1.9,0-4.4-2-5-8.7c-0.6-2.4,0.2-5,1.9-6.7c-2.5-8-3.8-33.9,15-35.9c2.9-4.1,7.8-6.1,12.5-5.3c25.1,0.7,32.6,20,27.6,41.9
		C94.6,57.9,95.4,60.4,94.7,62.6L94.7,62.6z"/>
</g>
<g>
	<g>
		<g>
			<defs>
				<rect id="SVGID_1_" x="8.3" y="0" width="112.7" height="112.8"/>
			</defs>
			<clipPath id="SVGID_2_">
				<use xlink:href="#SVGID_1_"  style="overflow:visible;"/>
			</clipPath>
			<path class="st0" d="M19.2,66.5H7.9v20.8c0,6.2,5,11.3,11.3,11.3H40V87.3H19.2V66.5z M109.3,87.3H88.4v11.3h20.8
				c6.2,0,11.3-5,11.3-11.3V66.5h-11.3v20.8H109.3z M19.2,13.1H40V1.9H19.2c-6.2,0-11.3,5-11.3,11.3V34h11.3V13.1z M109.3,1.9h-19
				v11.3h19V34h11.3V13.1C120.5,6.9,115.5,1.9,109.3,1.9L109.3,1.9z"/>
		</g>
	</g>
</g>
</svg>
