<?xml version="1.0" encoding="utf-8"?>
<!-- Generator: Adobe Illustrator 23.0.0, SVG Export Plug-In . SVG Version: 6.00 Build 0)  -->
<svg version="1.1" id="图层_1" xmlns="http://www.w3.org/2000/svg" xmlns:xlink="http://www.w3.org/1999/xlink" x="0px" y="0px"
	 viewBox="0 0 128 128" style="enable-background:new 0 0 128 128;" xml:space="preserve">
<g>
	<path d="M105.7,104.7c-2,4.3-7.4,4.6-8.9,4.6h-66c-1.1-0.2-5.6-0.4-7.8-4.5c-0.9-1.5-1.6-4.3,0.2-8c3.1-6.7,10.3-7.4,11.9-7.5
		c12.2-1.8,16.1-5.8,16.1-6l0.3-0.3c1.3-1.2,1.7-3.4,1.9-5.1c-7.8-5.8-12.9-17.2-12.9-29.6c0-19.9,12.7-27,23.5-27
		c10.8,0,23.5,7.1,23.5,27c0,12.4-5,23.8-12.9,29.6c0.2,1.8,0.5,4,1.9,5.1l0.3,0.3c0,0,3.9,4.1,16.1,5.8c2.8,0.2,8.1,1.5,11.4,6.6
		C107,99.9,106.6,102.9,105.7,104.7L105.7,104.7z M89.4,12.8h23.5c2.7,0,4.9,2,4.9,4.8v25.8h8.8V17.3c0-7.2-5.9-13.4-13.6-13.4H89.4
		V12.8z M10.6,43.2V17.4c0-2.6,2-4.8,4.9-4.8h23V4h-23C7.9,4.2,1.8,10,1.8,17.4v25.8L10.6,43.2L10.6,43.2z"/>
	<path d="M38.5,117.8h-23c-2.7,0-4.9-2-4.9-4.8V93.2H1.8v19.9c0,7.2,5.9,13.4,13.6,13.4h23V117.8z M117.8,93.2v19.9
		c0,2.6-2,4.8-4.9,4.8H89.4v8.6h23.5c7.4,0,13.6-5.8,13.6-13.4V93.2L117.8,93.2L117.8,93.2z"/>
</g>
</svg>
