<?xml version="1.0" encoding="utf-8"?>
<!-- Generator: Adobe Illustrator 23.0.0, SVG Export Plug-In . SVG Version: 6.00 Build 0)  -->
<svg version="1.1" id="图层_1" xmlns="http://www.w3.org/2000/svg" xmlns:xlink="http://www.w3.org/1999/xlink" x="0px" y="0px"
	 viewBox="0 0 1389 2834.6" style="enable-background:new 0 0 1389 2834.6;" xml:space="preserve">
<style type="text/css">
	.st0{clip-path:url(#SVGID_2_);}
</style>
<g>
	<g>
		<defs>
			<rect id="SVGID_1_" x="403.5" y="1143.4" width="553.5" height="554.4"/>
		</defs>
		<clipPath id="SVGID_2_">
			<use xlink:href="#SVGID_1_"  style="overflow:visible;"/>
		</clipPath>
		<path class="st0" d="M916.8,1646.7H443.3c-8.1,0-14.7,6.6-14.7,14.7v20.8c0,8.1,6.6,14.7,14.7,14.7h473.5
			c8.1,0,14.7-6.6,14.7-14.7v-20.8C931.6,1653.3,925,1646.7,916.8,1646.7L916.8,1646.7z M919,1143.7H441.1
			c-20.9,0-37.8,16.9-37.8,37.8v377.2c0,20.9,16.9,37.8,37.8,37.8H919c20.9,0,37.8-16.9,37.8-37.8v-377.2
			C956.7,1160.6,939.8,1143.7,919,1143.7L919,1143.7z M554.3,1495.8c0,13.9-11.3,25.1-25.1,25.1c-13.9,0-25.2-11.3-25.2-25.1v-100.6
			c0-13.9,11.3-25.1,25.2-25.1c13.9,0,25.1,11.3,25.1,25.1V1495.8z M654.9,1495.8c0,13.9-11.3,25.1-25.1,25.1
			c-13.9,0-25.2-11.3-25.2-25.1v-251.5c0-13.9,11.3-25.1,25.2-25.1c13.9,0,25.1,11.3,25.1,25.1V1495.8z M755.5,1495.8
			c0,13.9-11.3,25.1-25.2,25.1s-25.2-11.3-25.2-25.1v-50.3c0-13.9,11.3-25.2,25.2-25.2s25.2,11.3,25.2,25.2V1495.8z M856.1,1495.8
			c0,13.9-11.3,25.1-25.2,25.1c-13.9,0-25.1-11.3-25.1-25.1v-201.2c0-13.9,11.3-25.1,25.1-25.1c13.9,0,25.2,11.3,25.2,25.1V1495.8z
			 M856.1,1495.8"/>
	</g>
</g>
</svg>
