<?xml version="1.0" encoding="utf-8"?>
<!-- Generator: Adobe Illustrator 23.0.0, SVG Export Plug-In . SVG Version: 6.00 Build 0)  -->
<svg version="1.1" id="图层_1" xmlns="http://www.w3.org/2000/svg" xmlns:xlink="http://www.w3.org/1999/xlink" x="0px" y="0px"
	 viewBox="0 0 128 128" style="enable-background:new 0 0 128 128;" xml:space="preserve">
<g>
	<path d="M126.5,43.4v70.7c0,1.8-0.4,3.3-1.1,4.6c-0.7,1.3-1.5,2.4-2.4,3.3c-1.3,1.3-2.6,2.2-3.9,2.7s-2.7,0.8-4,0.8H12.6
		c-3.1-0.1-5.7-1.2-7.6-3.3c-1.9-2.1-2.9-4.6-3-7.4V43.4L13.4,8c0-0.2,0.9-1.3,2.8-3.1s4.8-2.8,8.7-3.1h78.7
		c0.4-0.2,2.1,0.3,5.1,1.5s5.1,3.9,6.3,8.2L126.5,43.4z M111.5,34.6l-7.1-21.3H23.2l-6.3,21.3H111.5z M87.9,87.9
		c1.6-1.6,2.4-3.7,2.4-6.4c0-2.7-0.8-4.8-2.4-6.4s-3.7-2.4-6.5-2.5H46.2c-2.7,0.1-4.9,0.9-6.5,2.5s-2.4,3.7-2.4,6.4
		c0,2.7,0.8,4.8,2.4,6.4c1.6,1.6,3.7,2.4,6.5,2.4h35.3C84.2,90.2,86.3,89.4,87.9,87.9L87.9,87.9z"/>
</g>
</svg>
