<?xml version="1.0" encoding="utf-8"?>
<!-- Generator: Adobe Illustrator 23.0.0, SVG Export Plug-In . SVG Version: 6.00 Build 0)  -->
<svg version="1.1" id="图层_1" xmlns="http://www.w3.org/2000/svg" xmlns:xlink="http://www.w3.org/1999/xlink" x="0px" y="0px"
	 viewBox="0 0 1389 2834.6" style="enable-background:new 0 0 1389 2834.6;" xml:space="preserve">
<style type="text/css">
	.st0{clip-path:url(#SVGID_2_);}
</style>
<g>
	<g>
		<defs>
			<rect id="SVGID_1_" x="397" y="1147.6" width="591.8" height="553.9"/>
		</defs>
		<clipPath id="SVGID_2_">
			<use xlink:href="#SVGID_1_"  style="overflow:visible;"/>
		</clipPath>
		<path class="st0" d="M985.9,1383c-2.3-12.9-14.7-26-27.6-28.9l-9.6-2.2c-22.6-6.8-42.6-21.8-55.4-43.8
			c-12.7-22.1-15.8-47.3-10.2-70.3l3-9c3.8-12.5-1.2-29.8-11.2-38.4c0,0-9-7.6-34.5-22.4c-25.5-14.6-36.5-18.7-36.5-18.7
			c-12.4-4.5-29.8-0.2-38.8,9.4l-6.7,7.2c-17.1,16.2-40.2,26.1-65.7,26.1c-25.5,0-48.8-10-65.9-26.3l-6.5-7
			c-8.9-9.6-26.4-13.9-38.8-9.4c0,0-11.1,4.1-36.6,18.7c-25.5,14.8-34.4,22.5-34.4,22.5c-10.1,8.5-15.1,25.6-11.2,38.2l2.8,9.2
			c5.4,23.1,2.5,48.1-10.2,70.2c-12.7,22.1-33,37.2-55.7,43.9l-9.3,2.1c-12.7,2.9-25.3,15.9-27.6,28.9c0,0-2.1,11.6-2.1,41
			c0,29.4,2.1,41,2.1,41c2.3,13,14.7,26,27.6,28.9l9,2.1c22.7,6.7,43.1,21.8,55.9,44c12.7,22.1,15.8,47.3,10.2,70.3l-2.7,8.9
			c-3.8,12.5,1.2,29.8,11.2,38.4c0,0,9,7.6,34.5,22.4c25.5,14.7,36.5,18.7,36.5,18.7c12.4,4.5,29.8,0.2,38.8-9.4l6.4-6.8
			c17.3-16.3,40.4-26.3,66-26.3c25.6,0,48.9,10.1,66.1,26.4l6.4,6.8c8.9,9.6,26.4,13.9,38.8,9.4c0,0,11.1-4.1,36.6-18.7
			c25.5-14.7,34.4-22.4,34.4-22.4c10.1-8.5,15.1-25.7,11.2-38.4l-2.8-9.3c-5.4-22.9-2.5-48,10.2-70c12.7-22.1,33.1-37.3,55.8-44
			l9-2.1c12.7-2.9,25.3-15.9,27.6-28.9c0,0,2.1-11.6,2.1-41C987.9,1394.6,985.9,1383,985.9,1383L985.9,1383z M692.6,1541.8
			c-65,0-117.8-52.7-117.8-117.8c0-65,52.7-117.7,117.8-117.7c65,0,117.8,52.7,117.8,117.8C810.3,1489.1,757.6,1541.8,692.6,1541.8
			L692.6,1541.8z M692.6,1541.8"/>
	</g>
</g>
</svg>
