<?xml version="1.0" encoding="utf-8"?>
<!-- Generator: Adobe Illustrator 23.0.0, SVG Export Plug-In . SVG Version: 6.00 Build 0)  -->
<svg version="1.1" id="图层_1" xmlns="http://www.w3.org/2000/svg" xmlns:xlink="http://www.w3.org/1999/xlink" x="0px" y="0px"
	 viewBox="0 0 128 128" style="enable-background:new 0 0 128 128;" xml:space="preserve">
<g>
	<path d="M122.9,124.6H5.1c-1.7,0-3.1-1.5-3.1-3.4c0-1.9,1.4-3.4,3.1-3.4h2.1v-101c0-6.2,4.6-11.2,10.3-11.2h51.7
		c5.7,0,10.3,5,10.3,11.2v22.5h31c5.7,0,10.3,5,10.3,11.2v67.4h2.1c1.7,0,3.1,1.5,3.1,3.4C126,123.1,124.6,124.6,122.9,124.6
		L122.9,124.6z M36.1,26.9H21.6v15.7h14.5V26.9L36.1,26.9z M36.1,58.9H21.6v15.7h14.5V58.9z M36.1,90.9H21.6v15.7h14.5V90.9
		L36.1,90.9z M65,26.9H50.6v15.7H65L65,26.9L65,26.9z M65,58.9H50.6v15.7H65L65,58.9L65,58.9z M65,90.9H50.6v15.7H65L65,90.9
		L65,90.9z M108.4,59.5H94v15.7h14.5L108.4,59.5L108.4,59.5z M108.4,90.9H94v15.7h14.5L108.4,90.9L108.4,90.9z M108.4,90.9"/>
</g>
</svg>
